<svg xmlns="http://www.w3.org/2000/svg" xmlns:xlink="http://www.w3.org/1999/xlink" width="500" zoomAndPan="magnify" viewBox="0 0 375 374.999991" height="500" preserveAspectRatio="xMidYMid meet" version="1.0"><defs><g/></defs><rect x="-37.5" width="450" fill="#ffffff" y="-37.499999" height="449.999989" fill-opacity="1"/><rect x="-37.5" width="450" fill="#ffffff" y="-37.499999" height="449.999989" fill-opacity="1"/><g fill="#404040" fill-opacity="1"><g transform="translate(58.00832, 211.143898)"><g><path d="M 23.996094 -7.71875 C 18.902344 -7.507812 8.085938 -8.035156 8.085938 -21.003906 C 8.085938 -30.980469 14.859375 -34.8125 23.996094 -34.339844 L 23.996094 -25.046875 L 32.03125 -25.046875 L 32.03125 -41.535156 C 32.03125 -41.742188 31.820312 -42.007812 31.453125 -42.007812 L 24.625 -42.007812 C 14.335938 -42.007812 0 -39.644531 0 -21.003906 C 0 -3.046875 14.175781 0 24.625 0 L 31.453125 0 C 31.820312 0 32.03125 -0.261719 32.03125 -0.472656 L 32.03125 -7.71875 Z M 23.996094 -7.71875 "/></g></g></g><g fill="#404040" fill-opacity="1"><g transform="translate(97.43679, 211.143898)"><g><path d="M 22.683594 -7.824219 L 0 -7.824219 L 0 -0.472656 C 0 -0.261719 0.261719 0 0.578125 0 L 22.683594 0 C 23.050781 0 23.261719 -0.261719 23.261719 -0.472656 L 23.261719 -7.296875 C 23.261719 -7.5625 23.050781 -7.824219 22.683594 -7.824219 Z M 8.035156 -15.855469 L 8.035156 -41.535156 C 8.035156 -41.742188 7.824219 -42.007812 7.507812 -42.007812 L 0.578125 -42.007812 C 0.261719 -42.007812 0 -41.742188 0 -41.535156 L 0 -15.855469 Z M 8.035156 -15.855469 "/></g></g></g><g fill="#404040" fill-opacity="1"><g transform="translate(127.677761, 211.143898)"><g><path d="M 32.976562 -0.628906 L 17.011719 -41.691406 C 16.855469 -42.109375 16.121094 -42.109375 15.960938 -41.691406 L 0.0507812 -0.628906 C -0.105469 -0.316406 0.105469 0 0.578125 0 L 7.769531 0 C 7.980469 0 8.242188 -0.105469 8.296875 -0.316406 L 16.488281 -23.734375 L 24.785156 -0.316406 C 24.835938 -0.105469 25.097656 0 25.257812 0 L 32.503906 0 C 32.871094 0 33.132812 -0.316406 32.976562 -0.628906 Z M 32.976562 -0.628906 "/></g></g></g><g fill="#404040" fill-opacity="1"><g transform="translate(168.103726, 211.143898)"><g><path d="M 30.980469 -42.007812 L 24.152344 -42.007812 C 23.785156 -42.007812 23.574219 -41.742188 23.574219 -41.535156 L 23.574219 -14.019531 C 23.574219 -9.765625 19.691406 -7.71875 15.753906 -7.71875 C 11.867188 -7.71875 8.402344 -9.925781 7.929688 -14.070312 L 7.929688 -34.390625 L 0 -34.390625 L 0 -14.019531 C 0 -5.355469 7.089844 0 15.753906 0 C 24.679688 0 31.503906 -5.144531 31.503906 -14.019531 L 31.503906 -41.535156 C 31.503906 -41.742188 31.242188 -42.007812 30.980469 -42.007812 Z M 30.980469 -42.007812 "/></g></g></g><g fill="#404040" fill-opacity="1"><g transform="translate(206.954699, 211.143898)"><g><path d="M 7.457031 -42.007812 L 0.578125 -42.007812 C 0.261719 -42.007812 0 -41.742188 0 -41.535156 L 0 -25.046875 L 8.035156 -25.046875 L 8.035156 -34.339844 C 17.171875 -34.8125 23.945312 -30.980469 23.945312 -21.003906 C 23.945312 -8.035156 13.125 -7.507812 8.035156 -7.71875 L 8.035156 -16.960938 L 0 -16.960938 L 0 -0.472656 C 0 -0.261719 0.261719 0 0.578125 0 L 7.457031 0 C 17.90625 0 32.03125 -3.046875 32.03125 -21.003906 C 32.03125 -39.644531 17.695312 -42.007812 7.457031 -42.007812 Z M 7.457031 -42.007812 "/></g></g></g><g fill="#404040" fill-opacity="1"><g transform="translate(246.383163, 211.143898)"><g><path d="M 17.117188 -7.195312 L 12.917969 -7.195312 L 12.917969 -42.007812 L 4.882812 -42.007812 L 4.882812 -7.195312 L 0.578125 -7.195312 C 0.261719 -7.195312 0 -6.984375 0 -6.722656 L 0 -0.472656 C 0 -0.261719 0.261719 0 0.578125 0 L 17.117188 0 C 17.484375 0 17.695312 -0.261719 17.695312 -0.472656 L 17.695312 -6.722656 C 17.695312 -6.984375 17.484375 -7.195312 17.117188 -7.195312 Z M 17.117188 -7.195312 "/></g></g></g><g fill="#404040" fill-opacity="1"><g transform="translate(270.744154, 211.143898)"><g><path d="M 24.152344 -20.898438 C 24.152344 -23.101562 22.421875 -24.886719 20.214844 -24.886719 C 18.011719 -24.886719 16.277344 -23.101562 16.277344 -20.898438 C 16.277344 -18.746094 18.011719 -16.960938 20.214844 -16.960938 C 22.421875 -16.960938 24.152344 -18.746094 24.152344 -20.898438 Z M 40.429688 -21.054688 C 40.429688 -31.503906 33.65625 -42.007812 20.269531 -42.007812 C 6.667969 -42.007812 0 -31.503906 0 -21.054688 C 0 -10.554688 6.667969 0 20.269531 0 C 33.65625 0 40.429688 -10.554688 40.429688 -21.054688 Z M 32.554688 -20.898438 C 32.554688 -14.125 28.40625 -7.351562 20.269531 -7.351562 C 12.023438 -7.351562 7.929688 -14.125 7.929688 -20.898438 C 7.929688 -27.777344 12.023438 -34.601562 20.269531 -34.601562 C 28.40625 -34.601562 32.554688 -27.777344 32.554688 -20.898438 Z M 32.554688 -20.898438 "/></g></g></g><path stroke-linecap="butt" transform="matrix(-0.746252, 0, 0, -0.75, 335.590089, 160.538675)" fill="none" stroke-linejoin="miter" d="M 0.000328459 4.999484 L 84.43268 4.999484 " stroke="#404040" stroke-width="10" stroke-opacity="1" stroke-miterlimit="4"/><path stroke-linecap="butt" transform="matrix(0, -0.745878, 0.75, 0, 328.093958, 217.132354)" fill="none" stroke-linejoin="miter" d="M -0.000615058 4.999723 L 82.462987 4.999723 " stroke="#404040" stroke-width="10" stroke-opacity="1" stroke-miterlimit="4"/><path stroke-linecap="butt" transform="matrix(0.746252, 0, 0, 0.75, 39.401464, 214.453608)" fill="none" stroke-linejoin="miter" d="M 0.00117847 4.999356 L 84.43353 4.999356 " stroke="#404040" stroke-width="10" stroke-opacity="1" stroke-miterlimit="4"/><path stroke-linecap="butt" transform="matrix(0, 0.745878, -0.75, 0, 46.897619, 157.859915)" fill="none" stroke-linejoin="miter" d="M -0.000724292 4.998909 L 82.462878 4.998909 " stroke="#404040" stroke-width="10" stroke-opacity="1" stroke-miterlimit="4"/></svg>